NadyezhdaSLTwo.ufo
<glyph name="ampersand" format="1">
  <advance width="1233"/>
  <unicode hex="0026"/>
  <outline>
    <contour>
      <point x="547" y="907" type="qcurve"/>
      <point x="963" y="348" type="line"/>
      <point x="1002" y="397"/>
      <point x="1040" y="547"/>
      <point x="1040" y="651" type="qcurve"/>
      <point x="1040" y="683"/>
      <point x="1037" y="753" type="qcurve"/>
      <point x="1036" y="760" type="line"/>
      <point x="1200" y="760" type="line"/>
      <point x="1200" y="721" type="line"/>
      <point x="1200" y="560"/>
      <point x="1126" y="317"/>
      <point x="1051" y="229" type="qcurve"/>
      <point x="1221" y="0" type="line"/>
      <point x="1008" y="0" type="line"/>
      <point x="930" y="109" type="line"/>
      <point x="847" y="39"/>
      <point x="661" y="-29"/>
      <point x="555" y="-29" type="qcurve"/>
      <point x="339" y="-29"/>
      <point x="57" y="240"/>
      <point x="57" y="444" type="qcurve"/>
      <point x="57" y="581"/>
      <point x="195" y="815"/>
      <point x="334" y="915" type="qcurve"/>
      <point x="284" y="987"/>
      <point x="236" y="1125"/>
      <point x="236" y="1196" type="qcurve"/>
      <point x="236" y="1346"/>
      <point x="435" y="1520"/>
      <point x="608" y="1520" type="qcurve"/>
      <point x="673" y="1520"/>
      <point x="804" y="1496"/>
      <point x="874" y="1473" type="qcurve"/>
      <point x="874" y="1290" type="line"/>
      <point x="815" y="1329"/>
      <point x="690" y="1366"/>
      <point x="621" y="1366" type="qcurve"/>
      <point x="524" y="1366"/>
      <point x="412" y="1275"/>
      <point x="412" y="1198" type="qcurve"/>
      <point x="412" y="1139"/>
      <point x="470" y="1010"/>
    </contour>
    <contour>
      <point x="416" y="803" type="line"/>
      <point x="324" y="730"/>
      <point x="233" y="567"/>
      <point x="233" y="475" type="qcurve"/>
      <point x="233" y="324"/>
      <point x="433" y="125"/>
      <point x="588" y="125" type="qcurve"/>
      <point x="630" y="125"/>
      <point x="722" y="149"/>
      <point x="766" y="172" type="qcurve"/>
      <point x="793" y="187"/>
      <point x="828" y="210"/>
      <point x="844" y="223" type="qcurve"/>
    </contour>
  </outline>
</glyph>
<glyph name="parenleft" format="1">
  <advance width="1233"/>
  <unicode hex="0028"/>
  <outline>
    <contour>
      <point x="885" y="1554" type="line"/>
      <point x="752" y="1326"/>
      <point x="621" y="873"/>
      <point x="621" y="643" type="qcurve"/>
      <point x="621" y="414"/>
      <point x="752" y="-40"/>
      <point x="885" y="-270" type="qcurve"/>
      <point x="725" y="-270" type="line"/>
      <point x="574" y="-32"/>
      <point x="426" y="419"/>
      <point x="426" y="643" type="qcurve"/>
      <point x="426" y="866"/>
      <point x="574" y="1318"/>
      <point x="725" y="1554" type="qcurve"/>
    </contour>
  </outline>
</glyph>
<glyph name="period" format="1">
  <advance width="1233"/>
  <unicode hex="002E"/>
  <outline>
    <contour>
      <point x="489" y="305" type="line"/>
      <point x="741" y="305" type="line"/>
      <point x="741" y="0" type="line"/>
      <point x="489" y="0" type="line"/>
    </contour>
  </outline>
</glyph>
<glyph name="two" format="1">
  <advance width="1233"/>
  <unicode hex="0032"/>
  <outline>
    <contour>
      <point x="373" y="170" type="qcurve"/>
      <point x="1059" y="170" type="line"/>
      <point x="1059" y="0" type="line"/>
      <point x="152" y="0" type="line"/>
      <point x="152" y="170" type="line"/>
      <point x="339" y="367"/>
      <point x="619" y="669"/>
      <point x="672" y="731" type="qcurve"/>
      <point x="772" y="853"/>
      <point x="842" y="1004"/>
      <point x="842" y="1083" type="qcurve"/>
      <point x="842" y="1208"/>
      <point x="695" y="1350"/>
      <point x="567" y="1350" type="qcurve"/>
      <point x="476" y="1350"/>
      <point x="276" y="1284"/>
      <point x="164" y="1217" type="qcurve"/>
      <point x="164" y="1421" type="line"/>
      <point x="267" y="1470"/>
      <point x="466" y="1520"/>
      <point x="563" y="1520" type="qcurve"/>
      <point x="782" y="1520"/>
      <point x="1049" y="1287"/>
      <point x="1049" y="1098" type="qcurve"/>
      <point x="1049" y="1002"/>
      <point x="960" y="810"/>
      <point x="860" y="694" type="qcurve"/>
      <point x="804" y="629"/>
      <point x="591" y="399"/>
    </contour>
  </outline>
</glyph>
<glyph name="five" format="1">
  <advance width="1233"/>
  <unicode hex="0035"/>
  <outline>
    <contour>
      <point x="207" y="1493" type="line"/>
      <point x="963" y="1493" type="line"/>
      <point x="963" y="1323" type="line"/>
      <point x="391" y="1323" type="line"/>
      <point x="391" y="956" type="line"/>
      <point x="434" y="972"/>
      <point x="521" y="987"/>
      <point x="565" y="987" type="qcurve"/>
      <point x="797" y="987"/>
      <point x="1069" y="713"/>
      <point x="1069" y="479" type="qcurve"/>
      <point x="1069" y="243"/>
      <point x="784" y="-29"/>
      <point x="537" y="-29" type="qcurve"/>
      <point x="418" y="-29"/>
      <point x="221" y="3"/>
      <point x="143" y="35" type="qcurve"/>
      <point x="143" y="240" type="line"/>
      <point x="235" y="190"/>
      <point x="421" y="141"/>
      <point x="518" y="141" type="qcurve"/>
      <point x="685" y="141"/>
      <point x="866" y="317"/>
      <point x="866" y="479" type="qcurve"/>
      <point x="866" y="639"/>
      <point x="679" y="817"/>
      <point x="512" y="817" type="qcurve"/>
      <point x="431" y="817"/>
      <point x="277" y="780"/>
      <point x="207" y="743" type="qcurve"/>
    </contour>
  </outline>
</glyph>
<glyph name="six" format="1">
  <advance width="1233"/>
  <unicode hex="0036"/>
  <outline>
    <contour>
      <point x="991" y="1460" type="qcurve"/>
      <point x="991" y="1274" type="line"/>
      <point x="928" y="1311"/>
      <point x="786" y="1350"/>
      <point x="709" y="1350" type="qcurve"/>
      <point x="517" y="1350"/>
      <point x="319" y="1061"/>
      <point x="319" y="780" type="qcurve"/>
      <point x="367" y="880"/>
      <point x="537" y="987"/>
      <point x="647" y="987" type="qcurve"/>
      <point x="863" y="987"/>
      <point x="1100" y="722"/>
      <point x="1100" y="479" type="qcurve"/>
      <point x="1100" y="237"/>
      <point x="856" y="-29"/>
      <point x="635" y="-29" type="qcurve"/>
      <point x="375" y="-29"/>
      <point x="133" y="344"/>
      <point x="133" y="745" type="qcurve"/>
      <point x="133" y="1123"/>
      <point x="424" y="1520"/>
      <point x="700" y="1520" type="qcurve"/>
      <point x="774" y="1520"/>
      <point x="922" y="1489"/>
    </contour>
    <contour>
      <point x="631" y="829" type="qcurve"/>
      <point x="502" y="829"/>
      <point x="354" y="643"/>
      <point x="354" y="479" type="qcurve"/>
      <point x="354" y="315"/>
      <point x="502" y="129"/>
      <point x="631" y="129" type="qcurve"/>
      <point x="765" y="129"/>
      <point x="901" y="306"/>
      <point x="901" y="479" type="qcurve"/>
      <point x="901" y="653"/>
      <point x="765" y="829"/>
    </contour>
  </outline>
</glyph>
<glyph name="at" format="1">
  <advance width="1233"/>
  <unicode hex="0040"/>
  <outline>
    <contour>
      <point x="1038" y="545" type="qcurve"/>
      <point x="1038" y="674"/>
      <point x="910" y="829"/>
      <point x="803" y="829" type="qcurve"/>
      <point x="696" y="829"/>
      <point x="567" y="674"/>
      <point x="567" y="545" type="qcurve"/>
      <point x="567" y="415"/>
      <point x="696" y="260"/>
      <point x="803" y="260" type="qcurve"/>
      <point x="910" y="260"/>
      <point x="1038" y="415"/>
    </contour>
    <contour>
      <point x="1178" y="135" type="line"/>
      <point x="1034" y="135" type="line"/>
      <point x="1034" y="246" type="line"/>
      <point x="997" y="183"/>
      <point x="866" y="115"/>
      <point x="784" y="115" type="qcurve"/>
      <point x="623" y="115"/>
      <point x="412" y="357"/>
      <point x="412" y="545" type="qcurve"/>
      <point x="412" y="733"/>
      <point x="623" y="975"/>
      <point x="784" y="975" type="qcurve"/>
      <point x="864" y="975"/>
      <point x="998" y="905"/>
      <point x="1034" y="844" type="qcurve"/>
      <point x="1034" y="907" type="line"/>
      <point x="1034" y="1063"/>
      <point x="858" y="1253"/>
      <point x="713" y="1253" type="qcurve"/>
      <point x="467" y="1253"/>
      <point x="176" y="870"/>
      <point x="176" y="543" type="qcurve"/>
      <point x="176" y="214"/>
      <point x="506" y="-176"/>
      <point x="780" y="-176" type="qcurve"/>
      <point x="834" y="-176"/>
      <point x="942" y="-156"/>
      <point x="999" y="-135" type="qcurve"/>
      <point x="1047" y="-270" type="line"/>
      <point x="984" y="-295"/>
      <point x="861" y="-319"/>
      <point x="803" y="-319" type="qcurve"/>
      <point x="446" y="-319"/>
      <point x="27" y="147"/>
      <point x="27" y="543" type="qcurve"/>
      <point x="27" y="933"/>
      <point x="403" y="1395"/>
      <point x="719" y="1395" type="qcurve"/>
      <point x="928" y="1395"/>
      <point x="1178" y="1129"/>
      <point x="1178" y="905" type="qcurve"/>
    </contour>
  </outline>
</glyph>
<glyph name="B" format="1">
  <advance width="1233"/>
  <unicode hex="0042"/>
  <outline>
    <contour>
      <point x="369" y="713" type="line"/>
      <point x="369" y="166" type="line"/>
      <point x="608" y="166" type="line"/>
      <point x="784" y="166"/>
      <point x="934" y="289"/>
      <point x="934" y="430" type="qcurve"/>
      <point x="934" y="576"/>
      <point x="776" y="713"/>
      <point x="608" y="713" type="qcurve"/>
    </contour>
    <contour>
      <point x="369" y="1327" type="line"/>
      <point x="369" y="877" type="line"/>
      <point x="604" y="877" type="line"/>
      <point x="750" y="877"/>
      <point x="881" y="989"/>
      <point x="881" y="1114" type="qcurve"/>
      <point x="881" y="1227"/>
      <point x="752" y="1327"/>
      <point x="604" y="1327" type="qcurve"/>
    </contour>
    <contour>
      <point x="166" y="1493" type="line"/>
      <point x="608" y="1493" type="line"/>
      <point x="837" y="1493"/>
      <point x="1085" y="1295"/>
      <point x="1085" y="1114" type="qcurve"/>
      <point x="1085" y="977"/>
      <point x="954" y="819"/>
      <point x="823" y="799" type="qcurve"/>
      <point x="970" y="777"/>
      <point x="1137" y="570"/>
      <point x="1137" y="410" type="qcurve"/>
      <point x="1137" y="207"/>
      <point x="871" y="0"/>
      <point x="608" y="0" type="qcurve"/>
      <point x="166" y="0" type="line"/>
    </contour>
  </outline>
</glyph>
<glyph name="D" format="1">
  <advance width="1233"/>
  <unicode hex="0044"/>
  <outline>
    <contour>
      <point x="436" y="166" type="line"/>
      <point x="691" y="166"/>
      <point x="893" y="417"/>
      <point x="893" y="745" type="qcurve"/>
      <point x="893" y="1076"/>
      <point x="692" y="1327"/>
      <point x="436" y="1327" type="qcurve"/>
      <point x="340" y="1327" type="line"/>
      <point x="340" y="166" type="line"/>
    </contour>
    <contour>
      <point x="440" y="1493" type="line"/>
      <point x="782" y="1493"/>
      <point x="1106" y="1129"/>
      <point x="1106" y="745" type="qcurve"/>
      <point x="1106" y="363"/>
      <point x="782" y="0"/>
      <point x="440" y="0" type="qcurve"/>
      <point x="137" y="0" type="line"/>
      <point x="137" y="1493" type="line"/>
    </contour>
  </outline>
</glyph>
<glyph name="G" format="1">
  <advance width="1233"/>
  <unicode hex="0047"/>
  <outline>
    <contour>
      <point x="1104" y="123" type="line"/>
      <point x="1023" y="48"/>
      <point x="820" y="-29"/>
      <point x="702" y="-29" type="qcurve"/>
      <point x="418" y="-29"/>
      <point x="102" y="378"/>
      <point x="102" y="745" type="qcurve"/>
      <point x="102" y="1111"/>
      <point x="422" y="1520"/>
      <point x="707" y="1520" type="qcurve"/>
      <point x="801" y="1520"/>
      <point x="973" y="1467"/>
      <point x="1053" y="1413" type="qcurve"/>
      <point x="1053" y="1206" type="line"/>
      <point x="972" y="1283"/>
      <point x="802" y="1356"/>
      <point x="707" y="1356" type="qcurve"/>
      <point x="510" y="1356"/>
      <point x="313" y="1051"/>
      <point x="313" y="745" type="qcurve"/>
      <point x="313" y="434"/>
      <point x="504" y="135"/>
      <point x="702" y="135" type="qcurve"/>
      <point x="769" y="135"/>
      <point x="870" y="166"/>
      <point x="911" y="199" type="qcurve"/>
      <point x="911" y="600" type="line"/>
      <point x="694" y="600" type="line"/>
      <point x="694" y="766" type="line"/>
      <point x="1104" y="766" type="line"/>
    </contour>
  </outline>
</glyph>
<glyph name="J" format="1">
  <advance width="1233"/>
  <unicode hex="004A"/>
  <outline>
    <contour>
      <point x="109" y="61" type="qcurve"/>
      <point x="109" y="297" type="line"/>
      <point x="200" y="216"/>
      <point x="394" y="135"/>
      <point x="498" y="135" type="qcurve"/>
      <point x="641" y="135"/>
      <point x="754" y="284"/>
      <point x="754" y="487" type="qcurve"/>
      <point x="754" y="1323" type="line"/>
      <point x="373" y="1323" type="line"/>
      <point x="373" y="1493" type="line"/>
      <point x="956" y="1493" type="line"/>
      <point x="956" y="487" type="line"/>
      <point x="956" y="205"/>
      <point x="745" y="-29"/>
      <point x="498" y="-29" type="qcurve"/>
      <point x="402" y="-29"/>
      <point x="212" y="15"/>
    </contour>
  </outline>
</glyph>
<glyph name="Q" format="1">
  <advance width="1233"/>
  <unicode hex="0051"/>
  <outline>
    <contour>
      <point x="655" y="-27" type="line"/>
      <point x="648" y="-27"/>
      <point x="622" y="-29"/>
      <point x="614" y="-29" type="qcurve"/>
      <point x="364" y="-29"/>
      <point x="117" y="355"/>
      <point x="117" y="745" type="qcurve"/>
      <point x="117" y="1136"/>
      <point x="364" y="1520"/>
      <point x="616" y="1520" type="qcurve"/>
      <point x="869" y="1520"/>
      <point x="1116" y="1136"/>
      <point x="1116" y="745" type="qcurve"/>
      <point x="1116" y="451"/>
      <point x="979" y="92"/>
      <point x="840" y="20" type="qcurve"/>
      <point x="1040" y="-170" type="line"/>
      <point x="889" y="-270" type="line"/>
    </contour>
    <contour>
      <point x="905" y="745" type="qcurve"/>
      <point x="905" y="1074"/>
      <point x="770" y="1356"/>
      <point x="616" y="1356" type="qcurve"/>
      <point x="463" y="1356"/>
      <point x="328" y="1074"/>
      <point x="328" y="745" type="qcurve"/>
      <point x="328" y="417"/>
      <point x="463" y="135"/>
      <point x="616" y="135" type="qcurve"/>
      <point x="770" y="135"/>
      <point x="905" y="416"/>
    </contour>
  </outline>
</glyph>
<glyph name="R" format="1">
  <advance width="1233"/>
  <unicode hex="0052"/>
  <outline>
    <contour>
      <point x="760" y="705" type="qcurve"/>
      <point x="838" y="685"/>
      <point x="948" y="574"/>
      <point x="1030" y="408" type="qcurve"/>
      <point x="1233" y="0" type="line"/>
      <point x="1016" y="0" type="line"/>
      <point x="838" y="377" type="line"/>
      <point x="761" y="538"/>
      <point x="638" y="631"/>
      <point x="539" y="631" type="qcurve"/>
      <point x="346" y="631" type="line"/>
      <point x="346" y="0" type="line"/>
      <point x="143" y="0" type="line"/>
      <point x="143" y="1493" type="line"/>
      <point x="559" y="1493" type="line"/>
      <point x="805" y="1493"/>
      <point x="1067" y="1271"/>
      <point x="1067" y="1061" type="qcurve"/>
      <point x="1067" y="913"/>
      <point x="906" y="726"/>
    </contour>
    <contour>
      <point x="346" y="1327" type="line"/>
      <point x="346" y="797" type="line"/>
      <point x="567" y="797" type="line"/>
      <point x="712" y="797"/>
      <point x="854" y="927"/>
      <point x="854" y="1061" type="qcurve"/>
      <point x="854" y="1190"/>
      <point x="703" y="1327"/>
      <point x="559" y="1327" type="qcurve"/>
    </contour>
  </outline>
</glyph>
<glyph name="S" format="1">
  <advance width="1233"/>
  <unicode hex="0053"/>
  <outline>
    <contour>
      <point x="1012" y="1442" type="qcurve"/>
      <point x="1012" y="1237" type="line"/>
      <point x="920" y="1296"/>
      <point x="735" y="1356"/>
      <point x="641" y="1356" type="qcurve"/>
      <point x="498" y="1356"/>
      <point x="332" y="1223"/>
      <point x="332" y="1110" type="qcurve"/>
      <point x="332" y="1011"/>
      <point x="441" y="907"/>
      <point x="590" y="872" type="qcurve"/>
      <point x="696" y="848" type="line"/>
      <point x="906" y="799"/>
      <point x="1098" y="589"/>
      <point x="1098" y="408" type="qcurve"/>
      <point x="1098" y="195"/>
      <point x="834" y="-29"/>
      <point x="582" y="-29" type="qcurve"/>
      <point x="477" y="-29"/>
      <point x="265" y="16"/>
      <point x="158" y="61" type="qcurve"/>
      <point x="158" y="276" type="line"/>
      <point x="273" y="203"/>
      <point x="478" y="135"/>
      <point x="582" y="135" type="qcurve"/>
      <point x="735" y="135"/>
      <point x="905" y="272"/>
      <point x="905" y="395" type="qcurve"/>
      <point x="905" y="507"/>
      <point x="788" y="625"/>
      <point x="643" y="657" type="qcurve"/>
      <point x="535" y="682" type="line"/>
      <point x="327" y="729"/>
      <point x="139" y="919"/>
      <point x="139" y="1079" type="qcurve"/>
      <point x="139" y="1279"/>
      <point x="408" y="1520"/>
      <point x="631" y="1520" type="qcurve"/>
      <point x="717" y="1520"/>
      <point x="907" y="1481"/>
    </contour>
  </outline>
</glyph>
<glyph name="a" format="1">
  <advance width="1233"/>
  <unicode hex="0061"/>
  <outline>
    <contour>
      <point x="702" y="563" type="line"/>
      <point x="641" y="563" type="line"/>
      <point x="480" y="563"/>
      <point x="317" y="450"/>
      <point x="317" y="338" type="qcurve"/>
      <point x="317" y="237"/>
      <point x="439" y="125"/>
      <point x="547" y="125" type="qcurve"/>
      <point x="699" y="125"/>
      <point x="873" y="336"/>
      <point x="874" y="522" type="qcurve"/>
      <point x="874" y="563" type="line"/>
    </contour>
    <contour>
      <point x="1059" y="639" type="qcurve"/>
      <point x="1059" y="0" type="line"/>
      <point x="874" y="0" type="line"/>
      <point x="874" y="166" type="line"/>
      <point x="815" y="66"/>
      <point x="636" y="-29"/>
      <point x="508" y="-29" type="qcurve"/>
      <point x="337" y="-29"/>
      <point x="133" y="164"/>
      <point x="133" y="326" type="qcurve"/>
      <point x="133" y="513"/>
      <point x="384" y="707"/>
      <point x="627" y="707" type="qcurve"/>
      <point x="874" y="707" type="line"/>
      <point x="874" y="736" type="line"/>
      <point x="873" y="870"/>
      <point x="739" y="991"/>
      <point x="592" y="991" type="qcurve"/>
      <point x="498" y="991"/>
      <point x="306" y="937"/>
      <point x="215" y="885" type="qcurve"/>
      <point x="215" y="1069" type="line"/>
      <point x="317" y="1108"/>
      <point x="504" y="1147"/>
      <point x="592" y="1147" type="qcurve"/>
      <point x="731" y="1147"/>
      <point x="928" y="1065"/>
      <point x="989" y="983" type="qcurve"/>
      <point x="1027" y="933"/>
      <point x="1059" y="786"/>
    </contour>
  </outline>
</glyph>
<glyph name="c" format="1">
  <advance width="1233"/>
  <unicode hex="0063"/>
  <outline>
    <contour>
      <point x="1061" y="57" type="line"/>
      <point x="987" y="14"/>
      <point x="830" y="-29"/>
      <point x="748" y="-29" type="qcurve"/>
      <point x="488" y="-29"/>
      <point x="195" y="283"/>
      <point x="195" y="559" type="qcurve"/>
      <point x="195" y="835"/>
      <point x="488" y="1147"/>
      <point x="748" y="1147" type="qcurve"/>
      <point x="829" y="1147"/>
      <point x="983" y="1105"/>
      <point x="1061" y="1061" type="qcurve"/>
      <point x="1061" y="868" type="line"/>
      <point x="988" y="933"/>
      <point x="841" y="991"/>
      <point x="748" y="991" type="qcurve"/>
      <point x="575" y="991"/>
      <point x="389" y="767"/>
      <point x="389" y="559" type="qcurve"/>
      <point x="389" y="352"/>
      <point x="576" y="127"/>
      <point x="748" y="127" type="qcurve"/>
      <point x="844" y="127"/>
      <point x="996" y="186"/>
      <point x="1061" y="248" type="qcurve"/>
    </contour>
  </outline>
</glyph>
<glyph name="e" format="1">
  <advance width="1233"/>
  <unicode hex="0065"/>
  <outline>
    <contour>
      <point x="1112" y="606" type="qcurve"/>
      <point x="1112" y="516" type="line"/>
      <point x="315" y="516" type="line"/>
      <point x="315" y="510" type="line"/>
      <point x="315" y="327"/>
      <point x="506" y="127"/>
      <point x="680" y="127" type="qcurve"/>
      <point x="768" y="127"/>
      <point x="960" y="183"/>
      <point x="1069" y="240" type="qcurve"/>
      <point x="1069" y="57" type="line"/>
      <point x="964" y="14"/>
      <point x="769" y="-29"/>
      <point x="678" y="-29" type="qcurve"/>
      <point x="417" y="-29"/>
      <point x="123" y="284"/>
      <point x="123" y="559" type="qcurve"/>
      <point x="123" y="827"/>
      <point x="411" y="1147"/>
      <point x="651" y="1147" type="qcurve"/>
      <point x="865" y="1147"/>
      <point x="1112" y="857"/>
    </contour>
    <contour>
      <point x="928" y="660" type="line"/>
      <point x="924" y="822"/>
      <point x="779" y="991"/>
      <point x="643" y="991" type="qcurve"/>
      <point x="510" y="991"/>
      <point x="338" y="815"/>
      <point x="322" y="659" type="qcurve"/>
    </contour>
  </outline>
</glyph>
<glyph name="j" format="1">
  <advance width="1233"/>
  <unicode hex="006A"/>
  <outline>
    <contour>
      <point x="600" y="-20" type="qcurve"/>
      <point x="600" y="977" type="line"/>
      <point x="283" y="977" type="line"/>
      <point x="283" y="1120" type="line"/>
      <point x="784" y="1120" type="line"/>
      <point x="784" y="-20" type="line"/>
      <point x="784" y="-215"/>
      <point x="605" y="-426"/>
      <point x="440" y="-426" type="qcurve"/>
      <point x="186" y="-426" type="line"/>
      <point x="186" y="-270" type="line"/>
      <point x="420" y="-270" type="line"/>
      <point x="510" y="-270"/>
      <point x="600" y="-145"/>
    </contour>
    <contour>
      <point x="600" y="1556" type="line"/>
      <point x="784" y="1556" type="line"/>
      <point x="784" y="1323" type="line"/>
      <point x="600" y="1323" type="line"/>
    </contour>
  </outline>
</glyph>
<glyph name="l" format="1">
  <advance width="1233"/>
  <unicode hex="006C"/>
  <outline>
    <contour>
      <point x="639" y="406" type="line"/>
      <point x="639" y="282"/>
      <point x="730" y="156"/>
      <point x="819" y="156" type="qcurve"/>
      <point x="1034" y="156" type="line"/>
      <point x="1034" y="0" type="line"/>
      <point x="801" y="0" type="line"/>
      <point x="636" y="0"/>
      <point x="455" y="212"/>
      <point x="455" y="406" type="qcurve"/>
      <point x="455" y="1423" type="line"/>
      <point x="160" y="1423" type="line"/>
      <point x="160" y="1567" type="line"/>
      <point x="639" y="1567" type="line"/>
    </contour>
  </outline>
</glyph>
<glyph name="n" format="1">
  <advance width="1233"/>
  <unicode hex="006E"/>
  <outline>
    <contour>
      <point x="1051" y="694" type="qcurve"/>
      <point x="1051" y="0" type="line"/>
      <point x="866" y="0" type="line"/>
      <point x="866" y="694" type="line"/>
      <point x="866" y="845"/>
      <point x="760" y="987"/>
      <point x="647" y="987" type="qcurve"/>
      <point x="518" y="987"/>
      <point x="379" y="804"/>
      <point x="379" y="633" type="qcurve"/>
      <point x="379" y="0" type="line"/>
      <point x="195" y="0" type="line"/>
      <point x="195" y="1120" type="line"/>
      <point x="379" y="1120" type="line"/>
      <point x="379" y="952" type="line"/>
      <point x="428" y="1048"/>
      <point x="596" y="1147"/>
      <point x="711" y="1147" type="qcurve"/>
      <point x="882" y="1147"/>
      <point x="1051" y="922"/>
    </contour>
  </outline>
</glyph>
<glyph name="o" format="1">
  <advance width="1233"/>
  <unicode hex="006F"/>
  <outline>
    <contour>
      <point x="616" y="991" type="qcurve"/>
      <point x="476" y="991"/>
      <point x="332" y="773"/>
      <point x="332" y="559" type="qcurve"/>
      <point x="332" y="346"/>
      <point x="476" y="127"/>
      <point x="616" y="127" type="qcurve"/>
      <point x="757" y="127"/>
      <point x="901" y="346"/>
      <point x="901" y="559" type="qcurve"/>
      <point x="901" y="773"/>
      <point x="757" y="991"/>
    </contour>
    <contour>
      <point x="616" y="1147" type="qcurve"/>
      <point x="849" y="1147"/>
      <point x="1096" y="845"/>
      <point x="1096" y="559" type="qcurve"/>
      <point x="1096" y="272"/>
      <point x="850" y="-29"/>
      <point x="616" y="-29" type="qcurve"/>
      <point x="383" y="-29"/>
      <point x="137" y="272"/>
      <point x="137" y="559" type="qcurve"/>
      <point x="137" y="845"/>
      <point x="383" y="1147"/>
    </contour>
  </outline>
</glyph>
<glyph name="p" format="1">
  <advance width="1233"/>
  <unicode hex="0070"/>
  <outline>
    <contour>
      <point x="375" y="141" type="qcurve"/>
      <point x="375" y="-426" type="line"/>
      <point x="190" y="-426" type="line"/>
      <point x="190" y="1120" type="line"/>
      <point x="375" y="1120" type="line"/>
      <point x="375" y="977" type="line"/>
      <point x="421" y="1060"/>
      <point x="574" y="1147"/>
      <point x="674" y="1147" type="qcurve"/>
      <point x="877" y="1147"/>
      <point x="1108" y="833"/>
      <point x="1108" y="555" type="qcurve"/>
      <point x="1108" y="282"/>
      <point x="876" y="-29"/>
      <point x="674" y="-29" type="qcurve"/>
      <point x="572" y="-29"/>
      <point x="419" y="58"/>
    </contour>
    <contour>
      <point x="915" y="559" type="qcurve"/>
      <point x="915" y="773"/>
      <point x="780" y="991"/>
      <point x="647" y="991" type="qcurve"/>
      <point x="513" y="991"/>
      <point x="375" y="772"/>
      <point x="375" y="559" type="qcurve"/>
      <point x="375" y="347"/>
      <point x="513" y="127"/>
      <point x="647" y="127" type="qcurve"/>
      <point x="780" y="127"/>
      <point x="915" y="345"/>
    </contour>
  </outline>
</glyph>
<glyph name="r" format="1">
  <advance width="1233"/>
  <unicode hex="0072"/>
  <outline>
    <contour>
      <point x="1155" y="889" type="line"/>
      <point x="1096" y="935"/>
      <point x="974" y="977"/>
      <point x="901" y="977" type="qcurve"/>
      <point x="729" y="977"/>
      <point x="547" y="761"/>
      <point x="547" y="557" type="qcurve"/>
      <point x="547" y="0" type="line"/>
      <point x="362" y="0" type="line"/>
      <point x="362" y="1120" type="line"/>
      <point x="547" y="1120" type="line"/>
      <point x="547" y="901" type="line"/>
      <point x="593" y="1020"/>
      <point x="784" y="1147"/>
      <point x="915" y="1147" type="qcurve"/>
      <point x="983" y="1147"/>
      <point x="1101" y="1113"/>
      <point x="1155" y="1077" type="qcurve"/>
    </contour>
  </outline>
</glyph>
<glyph name="s" format="1">
  <advance width="1233"/>
  <unicode hex="0073"/>
  <outline>
    <contour>
      <point x="973" y="1081" type="qcurve"/>
      <point x="973" y="901" type="line"/>
      <point x="894" y="947"/>
      <point x="734" y="993"/>
      <point x="651" y="993" type="qcurve"/>
      <point x="526" y="993"/>
      <point x="403" y="912"/>
      <point x="403" y="829" type="qcurve"/>
      <point x="403" y="754"/>
      <point x="495" y="680"/>
      <point x="678" y="645" type="qcurve"/>
      <point x="752" y="631" type="line"/>
      <point x="889" y="605"/>
      <point x="1030" y="449"/>
      <point x="1030" y="324" type="qcurve"/>
      <point x="1030" y="158"/>
      <point x="794" y="-29"/>
      <point x="584" y="-29" type="qcurve"/>
      <point x="501" y="-29"/>
      <point x="319" y="6"/>
      <point x="213" y="41" type="qcurve"/>
      <point x="213" y="231" type="line"/>
      <point x="316" y="178"/>
      <point x="504" y="125"/>
      <point x="588" y="125" type="qcurve"/>
      <point x="710" y="125"/>
      <point x="844" y="224"/>
      <point x="844" y="313" type="qcurve"/>
      <point x="844" y="441"/>
      <point x="599" y="490" type="qcurve"/>
      <point x="591" y="492" type="line"/>
      <point x="522" y="506" type="line"/>
      <point x="363" y="537"/>
      <point x="217" y="684"/>
      <point x="217" y="811" type="qcurve"/>
      <point x="217" y="972"/>
      <point x="435" y="1147"/>
      <point x="637" y="1147" type="qcurve"/>
      <point x="727" y="1147"/>
      <point x="893" y="1114"/>
    </contour>
  </outline>
</glyph>
<glyph name="u" format="1">
  <advance width="1233"/>
  <unicode hex="0075"/>
  <outline>
    <contour>
      <point x="195" y="424" type="qcurve"/>
      <point x="195" y="1118" type="line"/>
      <point x="379" y="1118" type="line"/>
      <point x="379" y="424" type="line"/>
      <point x="379" y="273"/>
      <point x="486" y="131"/>
      <point x="598" y="131" type="qcurve"/>
      <point x="728" y="131"/>
      <point x="866" y="314"/>
      <point x="866" y="485" type="qcurve"/>
      <point x="866" y="1118" type="line"/>
      <point x="1051" y="1118" type="line"/>
      <point x="1051" y="0" type="line"/>
      <point x="866" y="0" type="line"/>
      <point x="866" y="168" type="line"/>
      <point x="817" y="71"/>
      <point x="648" y="-29"/>
      <point x="535" y="-29" type="qcurve"/>
      <point x="363" y="-29"/>
      <point x="195" y="196"/>
    </contour>
  </outline>
</glyph>
<glyph name="y" format="1">
  <advance width="1233"/>
  <unicode hex="0079"/>
  <outline>
    <contour>
      <point x="858" y="360" type="line"/>
      <point x="812" y="243"/>
      <point x="741" y="52" type="qcurve"/>
      <point x="642" y="-212"/>
      <point x="608" y="-270" type="qcurve"/>
      <point x="562" y="-348"/>
      <point x="424" y="-426"/>
      <point x="332" y="-426" type="qcurve"/>
      <point x="184" y="-426" type="line"/>
      <point x="184" y="-272" type="line"/>
      <point x="293" y="-272" type="line"/>
      <point x="374" y="-272"/>
      <point x="466" y="-178"/>
      <point x="537" y="18" type="qcurve"/>
      <point x="104" y="1120" type="line"/>
      <point x="299" y="1120" type="line"/>
      <point x="631" y="244" type="line"/>
      <point x="958" y="1120" type="line"/>
      <point x="1153" y="1120" type="line"/>
    </contour>
  </outline>
</glyph>
<glyph name="braceleft" format="1">
  <advance width="1233"/>
  <unicode hex="007B"/>
  <outline>
    <contour>
      <point x="1012" y="-190" type="line"/>
      <point x="1012" y="-334" type="line"/>
      <point x="948" y="-334" type="line"/>
      <point x="699" y="-334"/>
      <point x="530" y="-186"/>
      <point x="530" y="35" type="qcurve"/>
      <point x="530" y="274" type="line"/>
      <point x="530" y="425"/>
      <point x="423" y="541"/>
      <point x="283" y="541" type="qcurve"/>
      <point x="221" y="541" type="line"/>
      <point x="221" y="684" type="line"/>
      <point x="283" y="684" type="line"/>
      <point x="424" y="684"/>
      <point x="530" y="798"/>
      <point x="530" y="948" type="qcurve"/>
      <point x="530" y="1188" type="line"/>
      <point x="530" y="1409"/>
      <point x="699" y="1556"/>
      <point x="948" y="1556" type="qcurve"/>
      <point x="1012" y="1556" type="line"/>
      <point x="1012" y="1413" type="line"/>
      <point x="942" y="1413" type="line"/>
      <point x="802" y="1413"/>
      <point x="717" y="1326"/>
      <point x="717" y="1184" type="qcurve"/>
      <point x="717" y="936" type="line"/>
      <point x="717" y="779"/>
      <point x="626" y="637"/>
      <point x="516" y="612" type="qcurve"/>
      <point x="627" y="585"/>
      <point x="717" y="443"/>
      <point x="717" y="287" type="qcurve"/>
      <point x="717" y="39" type="line"/>
      <point x="717" y="-104"/>
      <point x="802" y="-190"/>
      <point x="942" y="-190" type="qcurve"/>
    </contour>
  </outline>
</glyph>
<glyph name="braceright" format="1">
  <advance width="1233"/>
  <unicode hex="007D"/>
  <outline>
    <contour>
      <point x="221" y="-190" type="line"/>
      <point x="289" y="-190" type="line"/>
      <point x="430" y="-190"/>
      <point x="516" y="-102"/>
      <point x="516" y="39" type="qcurve"/>
      <point x="516" y="287" type="line"/>
      <point x="516" y="443"/>
      <point x="606" y="585"/>
      <point x="717" y="612" type="qcurve"/>
      <point x="607" y="637"/>
      <point x="516" y="779"/>
      <point x="516" y="936" type="qcurve"/>
      <point x="516" y="1184" type="line"/>
      <point x="516" y="1325"/>
      <point x="430" y="1413"/>
      <point x="289" y="1413" type="qcurve"/>
      <point x="221" y="1413" type="line"/>
      <point x="221" y="1556" type="line"/>
      <point x="283" y="1556" type="line"/>
      <point x="532" y="1556"/>
      <point x="700" y="1409"/>
      <point x="700" y="1188" type="qcurve"/>
      <point x="700" y="948" type="line"/>
      <point x="700" y="798"/>
      <point x="807" y="684"/>
      <point x="948" y="684" type="qcurve"/>
      <point x="1012" y="684" type="line"/>
      <point x="1012" y="541" type="line"/>
      <point x="948" y="541" type="line"/>
      <point x="807" y="541"/>
      <point x="700" y="425"/>
      <point x="700" y="274" type="qcurve"/>
      <point x="700" y="35" type="line"/>
      <point x="700" y="-186"/>
      <point x="532" y="-334"/>
      <point x="283" y="-334" type="qcurve"/>
      <point x="221" y="-334" type="line"/>
    </contour>
  </outline>
</glyph>
<glyph name="asciitilde" format="1">
  <advance width="1233"/>
  <unicode hex="007E"/>
  <outline>
    <contour>
      <point x="1145" y="780" type="qcurve"/>
      <point x="1145" y="606" type="line"/>
      <point x="1070" y="547"/>
      <point x="927" y="492"/>
      <point x="848" y="492" type="qcurve"/>
      <point x="758" y="492"/>
      <point x="645" y="543" type="qcurve"/>
      <point x="623" y="553"/>
      <point x="612" y="557" type="qcurve"/>
      <point x="535" y="590"/>
      <point x="432" y="614"/>
      <point x="381" y="614" type="qcurve"/>
      <point x="302" y="614"/>
      <point x="161" y="555"/>
      <point x="88" y="492" type="qcurve"/>
      <point x="88" y="666" type="line"/>
      <point x="166" y="726"/>
      <point x="312" y="780"/>
      <point x="395" y="780" type="qcurve"/>
      <point x="448" y="780"/>
      <point x="548" y="758"/>
      <point x="622" y="727" type="qcurve"/>
      <point x="634" y="722"/>
      <point x="655" y="712" type="qcurve"/>
      <point x="771" y="657"/>
      <point x="864" y="657" type="qcurve"/>
      <point x="934" y="657"/>
      <point x="1071" y="718"/>
    </contour>
  </outline>
</glyph>
<glyph name="sterling" format="1">
  <advance width="1233"/>
  <unicode hex="00A3"/>
  <outline>
    <contour>
      <point x="1092" y="1462" type="qcurve"/>
      <point x="1092" y="1278" type="line"/>
      <point x="1030" y="1322"/>
      <point x="903" y="1366"/>
      <point x="836" y="1366" type="qcurve"/>
      <point x="702" y="1366"/>
      <point x="575" y="1187"/>
      <point x="575" y="995" type="qcurve"/>
      <point x="575" y="778" type="line"/>
      <point x="946" y="778" type="line"/>
      <point x="946" y="635" type="line"/>
      <point x="575" y="635" type="line"/>
      <point x="575" y="170" type="line"/>
      <point x="1112" y="170" type="line"/>
      <point x="1112" y="0" type="line"/>
      <point x="139" y="0" type="line"/>
      <point x="139" y="170" type="line"/>
      <point x="375" y="170" type="line"/>
      <point x="375" y="635" type="line"/>
      <point x="176" y="635" type="line"/>
      <point x="176" y="778" type="line"/>
      <point x="375" y="778" type="line"/>
      <point x="375" y="1016" type="line"/>
      <point x="375" y="1270"/>
      <point x="594" y="1520"/>
      <point x="817" y="1520" type="qcurve"/>
      <point x="882" y="1520"/>
      <point x="1019" y="1491"/>
    </contour>
  </outline>
</glyph>
<glyph name="copyright" format="1">
  <advance width="1233"/>
  <unicode hex="00A9"/>
  <outline>
    <contour>
      <point x="864" y="1071" type="qcurve"/>
      <point x="864" y="963" type="line"/>
      <point x="806" y="991"/>
      <point x="695" y="1018"/>
      <point x="637" y="1018" type="qcurve"/>
      <point x="520" y="1018"/>
      <point x="385" y="869"/>
      <point x="385" y="741" type="qcurve"/>
      <point x="385" y="609"/>
      <point x="525" y="467"/>
      <point x="655" y="467" type="qcurve"/>
      <point x="711" y="467"/>
      <point x="814" y="492"/>
      <point x="864" y="518" type="qcurve"/>
      <point x="864" y="414" type="line"/>
      <point x="812" y="391"/>
      <point x="698" y="369"/>
      <point x="637" y="369" type="qcurve"/>
      <point x="457" y="369"/>
      <point x="250" y="569"/>
      <point x="250" y="741" type="qcurve"/>
      <point x="250" y="914"/>
      <point x="458" y="1116"/>
      <point x="637" y="1116" type="qcurve"/>
      <point x="698" y="1116"/>
      <point x="812" y="1094"/>
    </contour>
    <contour>
      <point x="616" y="1255" type="qcurve"/>
      <point x="510" y="1255"/>
      <point x="329" y="1181"/>
      <point x="254" y="1106" type="qcurve"/>
      <point x="179" y="1031"/>
      <point x="102" y="847"/>
      <point x="102" y="741" type="qcurve"/>
      <point x="102" y="637"/>
      <point x="179" y="454"/>
      <point x="254" y="379" type="qcurve"/>
      <point x="330" y="303"/>
      <point x="511" y="227"/>
      <point x="616" y="227" type="qcurve"/>
      <point x="722" y="227"/>
      <point x="903" y="303"/>
      <point x="979" y="379" type="qcurve"/>
      <point x="1055" y="455"/>
      <point x="1130" y="636"/>
      <point x="1130" y="741" type="qcurve"/>
      <point x="1130" y="847"/>
      <point x="1054" y="1031"/>
      <point x="979" y="1106" type="qcurve"/>
      <point x="904" y="1181"/>
      <point x="723" y="1255"/>
    </contour>
    <contour>
      <point x="616" y="1358" type="qcurve"/>
      <point x="743" y="1358"/>
      <point x="961" y="1268"/>
      <point x="1051" y="1178" type="qcurve"/>
      <point x="1141" y="1087"/>
      <point x="1233" y="867"/>
      <point x="1233" y="741" type="qcurve"/>
      <point x="1233" y="616"/>
      <point x="1142" y="398"/>
      <point x="1051" y="307" type="qcurve"/>
      <point x="960" y="216"/>
      <point x="742" y="125"/>
      <point x="616" y="125" type="qcurve"/>
      <point x="491" y="125"/>
      <point x="273" y="216"/>
      <point x="182" y="307" type="qcurve"/>
      <point x="91" y="398"/>
      <point x="0" y="616"/>
      <point x="0" y="741" type="qcurve"/>
      <point x="0" y="867"/>
      <point x="92" y="1087"/>
      <point x="182" y="1178" type="qcurve"/>
      <point x="272" y="1268"/>
      <point x="490" y="1358"/>
    </contour>
  </outline>
</glyph>
<glyph name="degree" format="1">
  <advance width="1233"/>
  <unicode hex="00B0"/>
  <outline>
    <contour>
      <point x="616" y="1520" type="qcurve"/>
      <point x="681" y="1520"/>
      <point x="798" y="1471"/>
      <point x="842" y="1425" type="qcurve"/>
      <point x="887" y="1380"/>
      <point x="934" y="1266"/>
      <point x="934" y="1200" type="qcurve"/>
      <point x="934" y="1068"/>
      <point x="748" y="885"/>
      <point x="614" y="885" type="qcurve"/>
      <point x="479" y="885"/>
      <point x="299" y="1065"/>
      <point x="299" y="1200" type="qcurve"/>
      <point x="299" y="1334"/>
      <point x="483" y="1520"/>
    </contour>
    <contour>
      <point x="616" y="1391" type="qcurve"/>
      <point x="537" y="1391"/>
      <point x="426" y="1280"/>
      <point x="426" y="1200" type="qcurve"/>
      <point x="426" y="1120"/>
      <point x="535" y="1012"/>
      <point x="614" y="1012" type="qcurve"/>
      <point x="694" y="1012"/>
      <point x="807" y="1122"/>
      <point x="807" y="1200" type="qcurve"/>
      <point x="807" y="1279"/>
      <point x="695" y="1391"/>
    </contour>
  </outline>
</glyph>
<glyph name="threesuperior" format="1">
  <advance width="1233"/>
  <unicode hex="00B3"/>
  <outline>
    <contour>
      <point x="731" y="1120" type="qcurve"/>
      <point x="825" y="1099"/>
      <point x="924" y="991"/>
      <point x="924" y="911" type="qcurve"/>
      <point x="924" y="787"/>
      <point x="734" y="653"/>
      <point x="557" y="653" type="qcurve"/>
      <point x="499" y="653"/>
      <point x="385" y="674"/>
      <point x="326" y="694" type="qcurve"/>
      <point x="326" y="815" type="line"/>
      <point x="395" y="788"/>
      <point x="508" y="762"/>
      <point x="553" y="762" type="qcurve"/>
      <point x="654" y="762"/>
      <point x="772" y="843"/>
      <point x="772" y="911" type="qcurve"/>
      <point x="772" y="985"/>
      <point x="662" y="1061"/>
      <point x="553" y="1061" type="qcurve"/>
      <point x="487" y="1061" type="line"/>
      <point x="487" y="1169" type="line"/>
      <point x="561" y="1169" type="line"/>
      <point x="654" y="1169"/>
      <point x="752" y="1232"/>
      <point x="752" y="1292" type="qcurve"/>
      <point x="752" y="1348"/>
      <point x="656" y="1411"/>
      <point x="569" y="1411" type="qcurve"/>
      <point x="525" y="1411"/>
      <point x="413" y="1387"/>
      <point x="354" y="1364" type="qcurve"/>
      <point x="354" y="1485" type="line"/>
      <point x="423" y="1502"/>
      <point x="540" y="1520"/>
      <point x="590" y="1520" type="qcurve"/>
      <point x="735" y="1520"/>
      <point x="903" y="1402"/>
      <point x="903" y="1303" type="qcurve"/>
      <point x="903" y="1232"/>
      <point x="815" y="1139"/>
    </contour>
  </outline>
</glyph>
<glyph name="paragraph" format="1">
  <advance width="1233"/>
  <unicode hex="00B6"/>
  <outline>
    <contour>
      <point x="582" y="1493" type="qcurve"/>
      <point x="1030" y="1493" type="line"/>
      <point x="1030" y="-197" type="line"/>
      <point x="889" y="-197" type="line"/>
      <point x="889" y="1370" type="line"/>
      <point x="698" y="1370" type="line"/>
      <point x="698" y="-197" type="line"/>
      <point x="557" y="-197" type="line"/>
      <point x="557" y="649" type="line"/>
      <point x="342" y="666"/>
      <point x="106" y="887"/>
      <point x="106" y="1071" type="qcurve"/>
      <point x="106" y="1261"/>
      <point x="367" y="1493"/>
    </contour>
  </outline>
</glyph>
<glyph name="middot" format="1">
  <advance width="1233"/>
  <unicode hex="00B7"/>
  <outline>
    <contour>
      <point x="489" y="864" type="line"/>
      <point x="741" y="864" type="line"/>
      <point x="741" y="559" type="line"/>
      <point x="489" y="559" type="line"/>
    </contour>
  </outline>
</glyph>
<glyph name="cedilla" format="1">
  <advance width="1233"/>
  <unicode hex="00B8"/>
  <outline>
    <contour>
      <point x="700" y="0" type="line"/>
      <point x="756" y="-62"/>
      <point x="809" y="-167"/>
      <point x="809" y="-215" type="qcurve"/>
      <point x="809" y="-304"/>
      <point x="689" y="-395"/>
      <point x="571" y="-395" type="qcurve"/>
      <point x="526" y="-395"/>
      <point x="439" y="-383"/>
      <point x="395" y="-371" type="qcurve"/>
      <point x="395" y="-240" type="line"/>
      <point x="429" y="-257"/>
      <point x="504" y="-272"/>
      <point x="551" y="-272" type="qcurve"/>
      <point x="609" y="-272"/>
      <point x="670" y="-224"/>
      <point x="670" y="-178" type="qcurve"/>
      <point x="670" y="-148"/>
      <point x="626" y="-61"/>
      <point x="582" y="0" type="qcurve"/>
    </contour>
  </outline>
</glyph>
<glyph name="ordmasculine" format="1">
  <advance width="1233"/>
  <unicode hex="00BA"/>
  <outline>
    <contour>
      <point x="616" y="1403" type="qcurve"/>
      <point x="514" y="1403"/>
      <point x="399" y="1247"/>
      <point x="399" y="1108" type="qcurve"/>
      <point x="399" y="969"/>
      <point x="514" y="815"/>
      <point x="616" y="815" type="qcurve"/>
      <point x="717" y="815"/>
      <point x="834" y="972"/>
      <point x="834" y="1108" type="qcurve"/>
      <point x="834" y="1247"/>
      <point x="719" y="1403"/>
    </contour>
    <contour>
      <point x="616" y="1520" type="qcurve"/>
      <point x="786" y="1520"/>
      <point x="989" y="1296"/>
      <point x="989" y="1108" type="qcurve"/>
      <point x="989" y="921"/>
      <point x="787" y="698"/>
      <point x="616" y="698" type="qcurve"/>
      <point x="446" y="698"/>
      <point x="244" y="921"/>
      <point x="244" y="1108" type="qcurve"/>
      <point x="244" y="1296"/>
      <point x="447" y="1520"/>
    </contour>
    <contour>
      <point x="276" y="592" type="line"/>
      <point x="952" y="592" type="line"/>
      <point x="952" y="469" type="line"/>
      <point x="276" y="469" type="line"/>
    </contour>
  </outline>
</glyph>
<glyph name="Oslash" format="1">
  <advance width="1233"/>
  <unicode hex="00D8"/>
  <outline>
    <contour>
      <point x="371" y="303" type="line"/>
      <point x="401" y="225"/>
      <point x="532" y="135"/>
      <point x="616" y="135" type="qcurve"/>
      <point x="770" y="135"/>
      <point x="905" y="416"/>
      <point x="905" y="745" type="qcurve"/>
      <point x="905" y="855"/>
      <point x="895" y="991"/>
      <point x="885" y="1036" type="qcurve"/>
    </contour>
    <contour>
      <point x="338" y="471" type="qcurve"/>
      <point x="842" y="1190" type="line"/>
      <point x="817" y="1271"/>
      <point x="702" y="1356"/>
      <point x="616" y="1356" type="qcurve"/>
      <point x="459" y="1356"/>
      <point x="328" y="1064"/>
      <point x="328" y="686" type="qcurve"/>
      <point x="328" y="606"/>
      <point x="333" y="505"/>
    </contour>
    <contour>
      <point x="1032" y="1247" type="line"/>
      <point x="1073" y="1166"/>
      <point x="1116" y="908"/>
      <point x="1116" y="745" type="qcurve"/>
      <point x="1116" y="355"/>
      <point x="869" y="-29"/>
      <point x="616" y="-29" type="qcurve"/>
      <point x="495" y="-29"/>
      <point x="315" y="52"/>
      <point x="254" y="133" type="qcurve"/>
      <point x="111" y="-70" type="line"/>
      <point x="8" y="0" type="line"/>
      <point x="186" y="252" type="line"/>
      <point x="154" y="325"/>
      <point x="117" y="587"/>
      <point x="117" y="745" type="qcurve"/>
      <point x="117" y="1136"/>
      <point x="364" y="1520"/>
      <point x="616" y="1520" type="qcurve"/>
      <point x="731" y="1520"/>
      <point x="904" y="1438"/>
      <point x="961" y="1358" type="qcurve"/>
      <point x="1100" y="1559" type="line"/>
      <point x="1200" y="1485" type="line"/>
    </contour>
  </outline>
</glyph>
<glyph name="Thorn" format="1">
  <advance width="1233"/>
  <unicode hex="00DE"/>
  <outline>
    <contour>
      <point x="403" y="1057" type="line"/>
      <point x="403" y="532" type="line"/>
      <point x="637" y="532" type="line"/>
      <point x="795" y="532"/>
      <point x="952" y="664"/>
      <point x="952" y="795" type="qcurve"/>
      <point x="952" y="926"/>
      <point x="795" y="1057"/>
      <point x="637" y="1057" type="qcurve"/>
    </contour>
    <contour>
      <point x="201" y="1493" type="line"/>
      <point x="403" y="1493" type="line"/>
      <point x="403" y="1223" type="line"/>
      <point x="657" y="1223" type="line"/>
      <point x="917" y="1223"/>
      <point x="1165" y="1013"/>
      <point x="1165" y="795" type="qcurve"/>
      <point x="1165" y="576"/>
      <point x="917" y="367"/>
      <point x="657" y="367" type="qcurve"/>
      <point x="403" y="367" type="line"/>
      <point x="403" y="0" type="line"/>
      <point x="201" y="0" type="line"/>
    </contour>
  </outline>
</glyph>
<glyph name="ae" format="1">
  <advance width="1233"/>
  <unicode hex="00E6"/>
  <outline>
    <contour>
      <point x="543" y="442" type="qcurve"/>
      <point x="543" y="514" type="line"/>
      <point x="494" y="514" type="line"/>
      <point x="325" y="514"/>
      <point x="205" y="424"/>
      <point x="205" y="311" type="qcurve"/>
      <point x="205" y="222"/>
      <point x="294" y="125"/>
      <point x="377" y="125" type="qcurve"/>
      <point x="469" y="125"/>
      <point x="543" y="258"/>
    </contour>
    <contour>
      <point x="1036" y="657" type="line"/>
      <point x="1036" y="709" type="line"/>
      <point x="1036" y="860"/>
      <point x="959" y="993"/>
      <point x="872" y="993" type="qcurve"/>
      <point x="785" y="993"/>
      <point x="709" y="857"/>
      <point x="709" y="700" type="qcurve"/>
      <point x="709" y="657" type="line"/>
    </contour>
    <contour>
      <point x="1200" y="514" type="line"/>
      <point x="709" y="514" type="line"/>
      <point x="708" y="499"/>
      <point x="707" y="464"/>
      <point x="707" y="430" type="qcurve"/>
      <point x="707" y="269"/>
      <point x="808" y="125"/>
      <point x="920" y="125" type="qcurve"/>
      <point x="999" y="125"/>
      <point x="1128" y="176"/>
      <point x="1178" y="227" type="qcurve"/>
      <point x="1178" y="55" type="line"/>
      <point x="1123" y="14"/>
      <point x="991" y="-29"/>
      <point x="920" y="-29" type="qcurve"/>
      <point x="810" y="-29"/>
      <point x="661" y="53"/>
      <point x="629" y="131" type="qcurve"/>
      <point x="590" y="51"/>
      <point x="457" y="-29"/>
      <point x="360" y="-29" type="qcurve"/>
      <point x="204" y="-29"/>
      <point x="41" y="143"/>
      <point x="41" y="307" type="qcurve"/>
      <point x="41" y="478"/>
      <point x="241" y="657"/>
      <point x="432" y="657" type="qcurve"/>
      <point x="549" y="657" type="line"/>
      <point x="549" y="745" type="line"/>
      <point x="549" y="865"/>
      <point x="450" y="993"/>
      <point x="356" y="993" type="qcurve"/>
      <point x="300" y="993"/>
      <point x="168" y="950"/>
      <point x="106" y="911" type="qcurve"/>
      <point x="106" y="1079" type="line"/>
      <point x="183" y="1114"/>
      <point x="315" y="1147"/>
      <point x="375" y="1147" type="qcurve"/>
      <point x="466" y="1147"/>
      <point x="590" y="1084"/>
      <point x="627" y="1020" type="qcurve"/>
      <point x="660" y="1081"/>
      <point x="792" y="1147"/>
      <point x="881" y="1147" type="qcurve"/>
      <point x="1055" y="1147"/>
      <point x="1200" y="910"/>
      <point x="1200" y="604" type="qcurve"/>
    </contour>
  </outline>
</glyph>
<glyph name="oslash" format="1">
  <advance width="1233"/>
  <unicode hex="00F8"/>
  <outline>
    <contour>
      <point x="877" y="780" type="qcurve"/>
      <point x="414" y="221" type="line"/>
      <point x="450" y="174"/>
      <point x="551" y="127"/>
      <point x="616" y="127" type="qcurve"/>
      <point x="757" y="127"/>
      <point x="901" y="346"/>
      <point x="901" y="559" type="qcurve"/>
      <point x="901" y="611"/>
      <point x="889" y="722"/>
    </contour>
    <contour>
      <point x="817" y="897" type="line"/>
      <point x="782" y="945"/>
      <point x="683" y="991"/>
      <point x="616" y="991" type="qcurve"/>
      <point x="477" y="991"/>
      <point x="328" y="777"/>
      <point x="328" y="575" type="qcurve"/>
      <point x="328" y="527"/>
      <point x="342" y="411"/>
      <point x="356" y="340" type="qcurve"/>
    </contour>
    <contour>
      <point x="217" y="180" type="line"/>
      <point x="178" y="251"/>
      <point x="137" y="446"/>
      <point x="137" y="559" type="qcurve"/>
      <point x="137" y="845"/>
      <point x="383" y="1147"/>
      <point x="616" y="1147" type="qcurve"/>
      <point x="716" y="1147"/>
      <point x="874" y="1092"/>
      <point x="934" y="1036" type="qcurve"/>
      <point x="1081" y="1212" type="line"/>
      <point x="1174" y="1135" type="line"/>
      <point x="1010" y="940" type="line"/>
      <point x="1052" y="874"/>
      <point x="1096" y="681"/>
      <point x="1096" y="559" type="qcurve"/>
      <point x="1096" y="272"/>
      <point x="850" y="-29"/>
      <point x="616" y="-29" type="qcurve"/>
      <point x="513" y="-29"/>
      <point x="356" y="30"/>
      <point x="299" y="90" type="qcurve"/>
      <point x="139" y="-96" type="line"/>
      <point x="47" y="-20" type="line"/>
    </contour>
  </outline>
</glyph>
<glyph name="dslash" format="1">
  <advance width="1233"/>
  <unicode hex="0111"/>
  <outline>
    <contour>
      <point x="858" y="977" type="qcurve"/>
      <point x="858" y="1286" type="line"/>
      <point x="553" y="1286" type="line"/>
      <point x="553" y="1407" type="line"/>
      <point x="858" y="1407" type="line"/>
      <point x="858" y="1556" type="line"/>
      <point x="1042" y="1556" type="line"/>
      <point x="1042" y="1407" type="line"/>
      <point x="1233" y="1407" type="line"/>
      <point x="1233" y="1286" type="line"/>
      <point x="1042" y="1286" type="line"/>
      <point x="1042" y="0" type="line"/>
      <point x="858" y="0" type="line"/>
      <point x="858" y="141" type="line"/>
      <point x="812" y="58"/>
      <point x="659" y="-29"/>
      <point x="559" y="-29" type="qcurve"/>
      <point x="356" y="-29"/>
      <point x="123" y="286"/>
      <point x="123" y="563" type="qcurve"/>
      <point x="123" y="836"/>
      <point x="357" y="1147"/>
      <point x="559" y="1147" type="qcurve"/>
      <point x="660" y="1147"/>
      <point x="814" y="1060"/>
    </contour>
    <contour>
      <point x="317" y="559" type="qcurve"/>
      <point x="317" y="345"/>
      <point x="453" y="127"/>
      <point x="586" y="127" type="qcurve"/>
      <point x="719" y="127"/>
      <point x="858" y="347"/>
      <point x="858" y="559" type="qcurve"/>
      <point x="858" y="772"/>
      <point x="719" y="991"/>
      <point x="586" y="991" type="qcurve"/>
      <point x="453" y="991"/>
      <point x="317" y="773"/>
    </contour>
  </outline>
</glyph>
<glyph name="OE" format="1">
  <advance width="1233"/>
  <unicode hex="0152"/>
  <outline>
    <contour>
      <point x="1217" y="170" type="line"/>
      <point x="1217" y="0" type="line"/>
      <point x="612" y="0" type="line"/>
      <point x="317" y="0"/>
      <point x="72" y="333"/>
      <point x="72" y="745" type="qcurve"/>
      <point x="72" y="1162"/>
      <point x="316" y="1493"/>
      <point x="612" y="1493" type="qcurve"/>
      <point x="1206" y="1493" type="line"/>
      <point x="1206" y="1323" type="line"/>
      <point x="848" y="1323" type="line"/>
      <point x="848" y="881" type="line"/>
      <point x="1176" y="881" type="line"/>
      <point x="1176" y="711" type="line"/>
      <point x="848" y="711" type="line"/>
      <point x="848" y="170" type="line"/>
    </contour>
    <contour>
      <point x="590" y="1323" type="line"/>
      <point x="413" y="1323"/>
      <point x="274" y="1093"/>
      <point x="274" y="745" type="qcurve"/>
      <point x="274" y="399"/>
      <point x="413" y="170"/>
      <point x="590" y="170" type="qcurve"/>
      <point x="651" y="170" type="line"/>
      <point x="651" y="1323" type="line"/>
    </contour>
  </outline>
</glyph>
<glyph name="florin" format="1">
  <advance width="1233"/>
  <unicode hex="0192"/>
  <outline>
    <contour>
      <point x="1200" y="1520" type="qcurve"/>
      <point x="1200" y="1356" type="line"/>
      <point x="1164" y="1384"/>
      <point x="1082" y="1413"/>
      <point x="1038" y="1413" type="qcurve"/>
      <point x="936" y="1413"/>
      <point x="821" y="1289"/>
      <point x="803" y="1159" type="qcurve"/>
      <point x="758" y="848" type="line"/>
      <point x="1061" y="848" type="line"/>
      <point x="1061" y="705" type="line"/>
      <point x="733" y="705" type="line"/>
      <point x="633" y="70" type="line"/>
      <point x="590" y="-196"/>
      <point x="391" y="-426"/>
      <point x="205" y="-426" type="qcurve"/>
      <point x="148" y="-426"/>
      <point x="46" y="-405"/>
      <point x="0" y="-383" type="qcurve"/>
      <point x="0" y="-219" type="line"/>
      <point x="49" y="-250"/>
      <point x="149" y="-283"/>
      <point x="197" y="-283" type="qcurve"/>
      <point x="293" y="-283"/>
      <point x="414" y="-133"/>
      <point x="440" y="18" type="qcurve"/>
      <point x="557" y="705" type="line"/>
      <point x="305" y="705" type="line"/>
      <point x="305" y="848" type="line"/>
      <point x="580" y="848" type="line"/>
      <point x="629" y="1178" type="line"/>
      <point x="655" y="1355"/>
      <point x="853" y="1556"/>
      <point x="1001" y="1556" type="qcurve"/>
      <point x="1050" y="1556"/>
      <point x="1149" y="1538"/>
    </contour>
  </outline>
</glyph>
<glyph name="breve" format="1">
  <advance width="1233"/>
  <unicode hex="02D8"/>
  <outline>
    <contour>
      <point x="303" y="1608" type="qcurve"/>
      <point x="422" y="1608" type="line"/>
      <point x="433" y="1532"/>
      <point x="529" y="1458"/>
      <point x="616" y="1458" type="qcurve"/>
      <point x="701" y="1458"/>
      <point x="797" y="1532"/>
      <point x="811" y="1608" type="qcurve"/>
      <point x="930" y="1608" type="line"/>
      <point x="919" y="1465"/>
      <point x="761" y="1321"/>
      <point x="616" y="1321" type="qcurve"/>
      <point x="472" y="1321"/>
      <point x="314" y="1465"/>
    </contour>
  </outline>
</glyph>
<glyph name="ring" format="1">
  <advance width="1233"/>
  <unicode hex="02DA"/>
  <outline>
    <contour>
      <point x="891" y="1524" type="qcurve"/>
      <point x="891" y="1409"/>
      <point x="732" y="1249"/>
      <point x="616" y="1249" type="qcurve"/>
      <point x="501" y="1249"/>
      <point x="342" y="1409"/>
      <point x="342" y="1524" type="qcurve"/>
      <point x="342" y="1639"/>
      <point x="501" y="1798"/>
      <point x="616" y="1798" type="qcurve"/>
      <point x="732" y="1798"/>
      <point x="891" y="1639"/>
    </contour>
    <contour>
      <point x="768" y="1524" type="qcurve"/>
      <point x="768" y="1587"/>
      <point x="680" y="1675"/>
      <point x="616" y="1675" type="qcurve"/>
      <point x="552" y="1675"/>
      <point x="465" y="1588"/>
      <point x="465" y="1524" type="qcurve"/>
      <point x="465" y="1459"/>
      <point x="552" y="1372"/>
      <point x="616" y="1372" type="qcurve"/>
      <point x="680" y="1372"/>
      <point x="768" y="1460"/>
    </contour>
  </outline>
</glyph>
<glyph name="bullet" format="1">
  <advance width="1233"/>
  <unicode hex="2022"/>
  <outline>
    <contour>
      <point x="319" y="762" type="qcurve"/>
      <point x="319" y="886"/>
      <point x="491" y="1057"/>
      <point x="616" y="1057" type="qcurve"/>
      <point x="740" y="1057"/>
      <point x="913" y="885"/>
      <point x="913" y="762" type="qcurve"/>
      <point x="913" y="638"/>
      <point x="739" y="465"/>
      <point x="614" y="465" type="qcurve"/>
      <point x="490" y="465"/>
      <point x="319" y="636"/>
    </contour>
  </outline>
</glyph>
<glyph name="partialdiff" format="1">
  <advance width="1233"/>
  <unicode hex="2202"/>
  <outline>
    <contour>
      <point x="842" y="621" type="qcurve"/>
      <point x="857" y="708"/>
      <point x="872" y="871"/>
      <point x="872" y="946" type="qcurve"/>
      <point x="872" y="1075"/>
      <point x="799" y="1206"/>
      <point x="727" y="1206" type="qcurve"/>
      <point x="672" y="1206"/>
      <point x="528" y="1090"/>
      <point x="492" y="1090" type="qcurve"/>
      <point x="456" y="1090"/>
      <point x="408" y="1134"/>
      <point x="408" y="1165" type="qcurve"/>
      <point x="408" y="1227"/>
      <point x="552" y="1325"/>
      <point x="653" y="1325" type="qcurve"/>
      <point x="833" y="1325"/>
      <point x="1047" y="1015"/>
      <point x="1047" y="752" type="qcurve"/>
      <point x="1047" y="417"/>
      <point x="758" y="-25"/>
      <point x="545" y="-25" type="qcurve"/>
      <point x="393" y="-25"/>
      <point x="190" y="191"/>
      <point x="190" y="354" type="qcurve"/>
      <point x="190" y="552"/>
      <point x="411" y="809"/>
      <point x="573" y="809" type="qcurve"/>
      <point x="674" y="809"/>
      <point x="804" y="718"/>
    </contour>
    <contour>
      <point x="793" y="494" type="qcurve"/>
      <point x="793" y="610"/>
      <point x="706" y="735"/>
      <point x="627" y="735" type="qcurve"/>
      <point x="518" y="735"/>
      <point x="377" y="477"/>
      <point x="377" y="270" type="qcurve"/>
      <point x="377" y="154"/>
      <point x="463" y="31"/>
      <point x="543" y="31" type="qcurve"/>
      <point x="652" y="31"/>
      <point x="793" y="291"/>
    </contour>
  </outline>
</glyph>
<glyph name="integral" format="1">
  <advance width="1233"/>
  <unicode hex="222B"/>
  <outline>
    <contour>
      <point x="393" y="-262" type="qcurve"/>
      <point x="499" y="-262"/>
      <point x="513" y="426" type="qcurve"/>
      <point x="515" y="534"/>
      <point x="516" y="591" type="qcurve"/>
      <point x="528" y="1106"/>
      <point x="718" y="1550"/>
      <point x="920" y="1550" type="qcurve"/>
      <point x="1000" y="1550"/>
      <point x="1100" y="1466"/>
      <point x="1100" y="1401" type="qcurve"/>
      <point x="1100" y="1347"/>
      <point x="1036" y="1284"/>
      <point x="981" y="1284" type="qcurve"/>
      <point x="939" y="1284"/>
      <point x="882" y="1322"/>
      <point x="871" y="1357" type="qcurve"/>
      <point x="865" y="1372"/>
      <point x="856" y="1444"/>
      <point x="840" y="1444" type="qcurve"/>
      <point x="733" y="1444"/>
      <point x="719" y="825" type="qcurve"/>
      <point x="715" y="632"/>
      <point x="711" y="522" type="qcurve"/>
      <point x="694" y="43"/>
      <point x="505" y="-371"/>
      <point x="309" y="-371" type="qcurve"/>
      <point x="230" y="-371"/>
      <point x="129" y="-288"/>
      <point x="129" y="-223" type="qcurve"/>
      <point x="129" y="-167"/>
      <point x="197" y="-104"/>
      <point x="258" y="-104" type="qcurve"/>
      <point x="291" y="-104"/>
      <point x="339" y="-133"/>
      <point x="354" y="-161" type="qcurve"/>
      <point x="363" y="-178"/>
      <point x="374" y="-262"/>
    </contour>
  </outline>
</glyph>
<glyph name="approxequal" format="1">
  <advance width="1233"/>
  <unicode hex="2248"/>
  <outline>
    <contour>
      <point x="1145" y="963" type="qcurve"/>
      <point x="1145" y="788" type="line"/>
      <point x="1070" y="729"/>
      <point x="927" y="674"/>
      <point x="848" y="674" type="qcurve"/>
      <point x="758" y="674"/>
      <point x="645" y="725" type="qcurve"/>
      <point x="623" y="735"/>
      <point x="612" y="739" type="qcurve"/>
      <point x="535" y="773"/>
      <point x="432" y="797"/>
      <point x="381" y="797" type="qcurve"/>
      <point x="302" y="797"/>
      <point x="161" y="738"/>
      <point x="88" y="674" type="qcurve"/>
      <point x="88" y="848" type="line"/>
      <point x="166" y="908"/>
      <point x="312" y="963"/>
      <point x="395" y="963" type="qcurve"/>
      <point x="448" y="963"/>
      <point x="548" y="941"/>
      <point x="623" y="909" type="qcurve"/>
      <point x="633" y="905"/>
      <point x="655" y="894" type="qcurve"/>
      <point x="771" y="840"/>
      <point x="864" y="840" type="qcurve"/>
      <point x="934" y="840"/>
      <point x="1071" y="900"/>
    </contour>
    <contour>
      <point x="1145" y="596" type="qcurve"/>
      <point x="1145" y="420" type="line"/>
      <point x="1070" y="361"/>
      <point x="927" y="305"/>
      <point x="848" y="305" type="qcurve"/>
      <point x="758" y="305"/>
      <point x="645" y="356" type="qcurve"/>
      <point x="623" y="366"/>
      <point x="612" y="371" type="qcurve"/>
      <point x="529" y="407"/>
      <point x="430" y="430"/>
      <point x="381" y="430" type="qcurve"/>
      <point x="303" y="430"/>
      <point x="162" y="370"/>
      <point x="88" y="305" type="qcurve"/>
      <point x="88" y="479" type="line"/>
      <point x="167" y="541"/>
      <point x="313" y="596"/>
      <point x="395" y="596" type="qcurve"/>
      <point x="491" y="596"/>
      <point x="621" y="541" type="qcurve"/>
      <point x="622" y="541" type="line"/>
      <point x="633" y="536"/>
      <point x="655" y="526" type="qcurve"/>
      <point x="771" y="471"/>
      <point x="864" y="471" type="qcurve"/>
      <point x="932" y="471"/>
      <point x="1070" y="532"/>
    </contour>
  </outline>
</glyph>
<glyph name="fi" format="1">
  <advance width="1233"/>
  <unicode hex="FB01"/>
  <outline>
    <contour>
      <point x="895" y="1554" type="line"/>
      <point x="1079" y="1554" type="line"/>
      <point x="1079" y="1321" type="line"/>
      <point x="895" y="1321" type="line"/>
    </contour>
    <contour>
      <point x="776" y="1556" type="line"/>
      <point x="776" y="1403" type="line"/>
      <point x="596" y="1403" type="line"/>
      <point x="497" y="1403"/>
      <point x="420" y="1322"/>
      <point x="420" y="1219" type="qcurve"/>
      <point x="420" y="1118" type="line"/>
      <point x="1079" y="1118" type="line"/>
      <point x="1079" y="0" type="line"/>
      <point x="895" y="0" type="line"/>
      <point x="895" y="977" type="line"/>
      <point x="420" y="977" type="line"/>
      <point x="420" y="0" type="line"/>
      <point x="236" y="0" type="line"/>
      <point x="236" y="977" type="line"/>
      <point x="35" y="977" type="line"/>
      <point x="35" y="1120" type="line"/>
      <point x="236" y="1120" type="line"/>
      <point x="236" y="1198" type="line"/>
      <point x="236" y="1382"/>
      <point x="405" y="1556"/>
      <point x="584" y="1556" type="qcurve"/>
    </contour>
  </outline>
</glyph>
<glyph name="c6461" format="1">
  <advance width="1233"/>
  <outline>
    <contour>
      <point x="612" y="1337" type="qcurve"/>
      <point x="555" y="1370" type="line"/>
      <point x="530" y="1384"/>
      <point x="499" y="1395"/>
      <point x="487" y="1395" type="qcurve"/>
      <point x="452" y="1395"/>
      <point x="412" y="1345"/>
      <point x="412" y="1300" type="qcurve"/>
      <point x="412" y="1294" type="line"/>
      <point x="287" y="1294" type="line"/>
      <point x="287" y="1395"/>
      <point x="390" y="1513"/>
      <point x="475" y="1513" type="qcurve"/>
      <point x="511" y="1513"/>
      <point x="572" y="1497"/>
      <point x="621" y="1470" type="qcurve"/>
      <point x="678" y="1440" type="line"/>
      <point x="700" y="1427"/>
      <point x="735" y="1415"/>
      <point x="750" y="1415" type="qcurve"/>
      <point x="781" y="1415"/>
      <point x="821" y="1466"/>
      <point x="821" y="1507" type="qcurve"/>
      <point x="821" y="1513" type="line"/>
      <point x="946" y="1513" type="line"/>
      <point x="944" y="1413"/>
      <point x="842" y="1294"/>
      <point x="758" y="1294" type="qcurve"/>
      <point x="724" y="1294"/>
      <point x="664" y="1310"/>
    </contour>
  </outline>
</glyph>
<glyph name="c6475" format="1">
  <advance width="1233"/>
  <outline>
    <contour>
      <point x="303" y="1528" type="qcurve"/>
      <point x="422" y="1528" type="line"/>
      <point x="434" y="1474"/>
      <point x="534" y="1417"/>
      <point x="616" y="1417" type="qcurve"/>
      <point x="699" y="1417"/>
      <point x="796" y="1472"/>
      <point x="811" y="1528" type="qcurve"/>
      <point x="930" y="1528" type="line"/>
      <point x="919" y="1409"/>
      <point x="760" y="1286"/>
      <point x="616" y="1286" type="qcurve"/>
      <point x="472" y="1286"/>
      <point x="314" y="1408"/>
    </contour>
  </outline>
</glyph>
<glyph name="x0" format="1">
  <advance width="1233"/>
  <outline>
    <contour>
      <point x="246" y="422" type="qcurve"/>
      <point x="246" y="449"/>
      <point x="282" y="485"/>
      <point x="308" y="485" type="qcurve" name="dv06"/>
      <point x="334" y="485"/>
      <point x="370" y="449"/>
      <point x="370" y="422" type="qcurve" name="sh01"/>
      <point x="370" y="396"/>
      <point x="334" y="360"/>
      <point x="308" y="360" type="qcurve" name="dv05"/>
      <point x="282" y="360"/>
      <point x="246" y="396"/>
    </contour>
    <contour>
      <point x="308" y="685" type="qcurve" name="dv03"/>
      <point x="257" y="685"/>
      <point x="210" y="560"/>
      <point x="210" y="422" type="qcurve" name="dh02"/>
      <point x="210" y="285"/>
      <point x="257" y="160"/>
      <point x="308" y="160" type="qcurve" name="dv02"/>
      <point x="359" y="160"/>
      <point x="406" y="285"/>
      <point x="406" y="422" type="qcurve" name="dh03"/>
      <point x="406" y="560"/>
      <point x="359" y="685"/>
    </contour>
    <contour>
      <point x="61" y="422" type="qcurve" name="dh01"/>
      <point x="61" y="616"/>
      <point x="184" y="810"/>
      <point x="308" y="810" type="qcurve" name="dv04"/>
      <point x="432" y="810"/>
      <point x="555" y="617"/>
      <point x="555" y="422" type="qcurve" name="dh04"/>
      <point x="555" y="228"/>
      <point x="432" y="35"/>
      <point x="308" y="35" type="qcurve" name="dv01"/>
      <point x="184" y="35"/>
      <point x="61" y="229"/>
    </contour>
  </outline>
</glyph>
<glyph name="x5" format="1">
  <advance width="1233"/>
  <outline>
    <contour>
      <point x="96" y="796" type="line"/>
      <point x="502" y="796" type="line" name="dv04"/>
      <point x="502" y="666" type="line" name="dv03"/>
      <point x="216" y="666" type="line"/>
      <point x="216" y="528" type="line" name="ih01"/>
      <point x="234" y="535"/>
      <point x="275" y="541"/>
      <point x="298" y="541" type="qcurve" name="dv06"/>
      <point x="409" y="541"/>
      <point x="547" y="401"/>
      <point x="547" y="289" type="qcurve" name="dh02"/>
      <point x="547" y="172"/>
      <point x="397" y="35"/>
      <point x="268" y="35" type="qcurve" name="dv01"/>
      <point x="220" y="35"/>
      <point x="122" y="51"/>
      <point x="71" y="67" type="qcurve"/>
      <point x="71" y="200" type="line"/>
      <point x="113" y="180"/>
      <point x="200" y="159"/>
      <point x="244" y="159" type="qcurve" name="dv02"/>
      <point x="322" y="159"/>
      <point x="403" y="226"/>
      <point x="403" y="289" type="qcurve" name="sh01"/>
      <point x="403" y="348"/>
      <point x="323" y="418"/>
      <point x="256" y="418" type="qcurve" name="dv05"/>
      <point x="216" y="418"/>
      <point x="137" y="399"/>
      <point x="96" y="379" type="qcurve" name="dh01"/>
    </contour>
  </outline>
</glyph>
<glyph name="x8" format="1">
  <advance width="1233"/>
  <outline>
    <contour>
      <point x="308" y="383" type="qcurve" name="dv05"/>
      <point x="258" y="383"/>
      <point x="197" y="320"/>
      <point x="197" y="269" type="qcurve"/>
      <point x="197" y="217"/>
      <point x="258" y="154"/>
      <point x="308" y="154" type="qcurve" name="dv02"/>
      <point x="357" y="154"/>
      <point x="419" y="218"/>
      <point x="419" y="269" type="qcurve"/>
      <point x="419" y="320"/>
      <point x="358" y="383"/>
    </contour>
    <contour>
      <point x="198" y="445" type="qcurve" name="ih01"/>
      <point x="142" y="465"/>
      <point x="83" y="548"/>
      <point x="83" y="609" type="qcurve"/>
      <point x="83" y="702"/>
      <point x="204" y="810"/>
      <point x="308" y="810" type="qcurve" name="dv04"/>
      <point x="412" y="810"/>
      <point x="533" y="702"/>
      <point x="533" y="609" type="qcurve"/>
      <point x="533" y="549"/>
      <point x="475" y="465"/>
      <point x="420" y="445" type="qcurve" name="ih02"/>
      <point x="482" y="426"/>
      <point x="552" y="328"/>
      <point x="552" y="260" type="qcurve" name="sh03"/>
      <point x="552" y="152"/>
      <point x="425" y="35"/>
      <point x="308" y="35" type="qcurve" name="dv01"/>
      <point x="191" y="35"/>
      <point x="64" y="152"/>
      <point x="64" y="260" type="qcurve" name="sh01"/>
      <point x="64" y="329"/>
      <point x="135" y="427"/>
    </contour>
    <contour>
      <point x="214" y="597" type="qcurve" name="sh02"/>
      <point x="214" y="553"/>
      <point x="264" y="501"/>
      <point x="308" y="501" type="qcurve" name="dv06"/>
      <point x="352" y="501"/>
      <point x="402" y="553"/>
      <point x="402" y="597" type="qcurve" name="ah01"/>
      <point x="402" y="640"/>
      <point x="352" y="691"/>
      <point x="308" y="691" type="qcurve" name="dv03"/>
      <point x="265" y="691"/>
      <point x="214" y="640"/>
    </contour>
  </outline>
</glyph>
<glyph name="x9" format="1">
  <advance width="1233"/>
  <outline>
    <contour>
      <point x="101" y="60" type="qcurve" name="hr00"/>
      <point x="101" y="194" type="line" name="ih01"/>
      <point x="141" y="171"/>
      <point x="213" y="149"/>
      <point x="247" y="149" type="qcurve" name="dv02"/>
      <point x="326" y="149"/>
      <point x="410" y="256"/>
      <point x="412" y="362" type="qcurve" name="ih02"/>
      <point x="389" y="329"/>
      <point x="316" y="297"/>
      <point x="266" y="297" type="qcurve" name="dv05"/>
      <point x="165" y="297"/>
      <point x="55" y="424"/>
      <point x="55" y="541" type="qcurve" name="sh01"/>
      <point x="55" y="666"/>
      <point x="178" y="803"/>
      <point x="291" y="803" type="qcurve" name="dv04"/>
      <point x="427" y="803"/>
      <point x="551" y="621"/>
      <point x="551" y="417" type="qcurve" name="sh03"/>
      <point x="551" y="224"/>
      <point x="400" y="30"/>
      <point x="249" y="30" type="qcurve" name="dv01"/>
      <point x="214" y="30"/>
      <point x="139" y="45"/>
    </contour>
    <contour>
      <point x="295" y="420" type="qcurve" name="dv06"/>
      <point x="342" y="420"/>
      <point x="393" y="490"/>
      <point x="393" y="556" type="qcurve" name="ah01"/>
      <point x="393" y="621"/>
      <point x="342" y="691"/>
      <point x="295" y="691" type="qcurve" name="dv03"/>
      <point x="247" y="691"/>
      <point x="195" y="621"/>
      <point x="195" y="556" type="qcurve" name="sh02"/>
      <point x="195" y="490"/>
      <point x="247" y="420"/>
    </contour>
  </outline>
</glyph>
<glyph name="xb" format="1">
  <advance width="1233"/>
  <outline>
    <contour>
      <point x="205" y="389" type="line" name="sh01"/>
      <point x="205" y="168" type="line"/>
      <point x="303" y="168" type="line" name="dv02"/>
      <point x="373" y="168"/>
      <point x="430" y="216"/>
      <point x="430" y="275" type="qcurve" name="sh02"/>
      <point x="430" y="336"/>
      <point x="371" y="389"/>
      <point x="303" y="389" type="qcurve" name="hr01"/>
    </contour>
    <contour>
      <point x="205" y="680" type="line" name="dh02"/>
      <point x="205" y="506" type="line" name="dv05"/>
      <point x="303" y="506" type="line"/>
      <point x="359" y="506"/>
      <point x="406" y="546"/>
      <point x="406" y="592" type="qcurve" name="dh03"/>
      <point x="406" y="638"/>
      <point x="358" y="680"/>
      <point x="303" y="680" type="qcurve" name="dv03"/>
    </contour>
    <contour>
      <point x="62" y="797" type="line" name="dh01"/>
      <point x="303" y="797" type="line" name="dv04"/>
      <point x="427" y="797"/>
      <point x="553" y="703"/>
      <point x="553" y="609" type="qcurve" name="dh04"/>
      <point x="553" y="537"/>
      <point x="479" y="456"/>
      <point x="407" y="449" type="qcurve" name="ih01"/>
      <point x="493" y="441"/>
      <point x="579" y="343"/>
      <point x="579" y="255" type="qcurve" name="sh03"/>
      <point x="579" y="147"/>
      <point x="449" y="50"/>
      <point x="303" y="50" type="qcurve" name="dv01"/>
      <point x="62" y="50" type="line"/>
    </contour>
  </outline>
</glyph>
<glyph name="xc" format="1">
  <advance width="1233"/>
  <outline>
    <contour>
      <point x="540" y="71" type="line"/>
      <point x="505" y="53"/>
      <point x="428" y="35"/>
      <point x="386" y="35" type="qcurve" name="dv01"/>
      <point x="235" y="35"/>
      <point x="76" y="234"/>
      <point x="76" y="422" type="qcurve" name="dh01"/>
      <point x="76" y="611"/>
      <point x="235" y="810"/>
      <point x="386" y="810" type="qcurve" name="dv04"/>
      <point x="428" y="810"/>
      <point x="506" y="792"/>
      <point x="540" y="774" type="qcurve" name="sh02"/>
      <point x="540" y="610" type="line"/>
      <point x="502" y="645"/>
      <point x="431" y="677"/>
      <point x="393" y="677" type="qcurve" name="dv03"/>
      <point x="312" y="677"/>
      <point x="229" y="549"/>
      <point x="229" y="422" type="qcurve" name="dh02"/>
      <point x="229" y="296"/>
      <point x="312" y="168"/>
      <point x="393" y="168" type="qcurve" name="dv02"/>
      <point x="431" y="168"/>
      <point x="502" y="200"/>
      <point x="540" y="235" type="qcurve" name="sh01"/>
    </contour>
  </outline>
</glyph>
<glyph name="xd" format="1">
  <advance width="1233"/>
  <outline>
    <contour>
      <point x="216" y="663" type="line" name="sh02"/>
      <point x="216" y="183" type="line" name="dv01"/>
      <point x="256" y="183" type="line"/>
      <point x="343" y="183"/>
      <point x="417" y="292"/>
      <point x="417" y="424" type="qcurve" name="ah01"/>
      <point x="417" y="554"/>
      <point x="343" y="663"/>
      <point x="256" y="663" type="qcurve"/>
    </contour>
    <contour>
      <point x="68" y="796" type="line" name="sh01"/>
      <point x="226" y="796" type="line" name="dv02"/>
      <point x="409" y="796"/>
      <point x="570" y="622"/>
      <point x="570" y="424" type="qcurve" name="sh03"/>
      <point x="570" y="225"/>
      <point x="409" y="50"/>
      <point x="226" y="50" type="qcurve" name="sh04"/>
      <point x="68" y="50" type="line"/>
    </contour>
  </outline>
</glyph>
<glyph name="xe" format="1">
  <advance width="1233"/>
  <outline>
    <contour>
      <point x="549" y="50" type="line" name="sh01"/>
      <point x="84" y="50" type="line" name="dh01"/>
      <point x="84" y="796" type="line"/>
      <point x="549" y="796" type="line" name="sh02"/>
      <point x="549" y="666" type="line" name="dv02"/>
      <point x="231" y="666" type="line" name="sh03"/>
      <point x="231" y="505" type="line"/>
      <point x="519" y="505" type="line" name="dv04"/>
      <point x="519" y="375" type="line" name="dv03"/>
      <point x="231" y="375" type="line"/>
      <point x="231" y="180" type="line" name="dh02"/>
      <point x="549" y="180" type="line" name="dv01"/>
    </contour>
  </outline>
</glyph>
<glyph name="xf" format="1">
  <advance width="1233"/>
  <outline>
    <contour>
      <point x="556" y="666" type="line" name="dv01"/>
      <point x="238" y="666" type="line" name="sh01"/>
      <point x="238" y="505" type="line"/>
      <point x="527" y="505" type="line" name="dv04"/>
      <point x="527" y="375" type="line" name="dv03"/>
      <point x="238" y="375" type="line"/>
      <point x="238" y="50" type="line" name="dh02"/>
      <point x="91" y="50" type="line" name="dh01"/>
      <point x="91" y="796" type="line"/>
      <point x="556" y="796" type="line" name="dv02"/>
    </contour>
  </outline>
</glyph>
<glyph name="xh" format="1">
  <advance width="1233"/>
  <outline>
    <contour>
      <point x="68" y="796" type="line" name="sh01"/>
      <point x="216" y="796" type="line" name="sh02"/>
      <point x="216" y="512" type="line"/>
      <point x="400" y="512" type="line" name="dv02"/>
      <point x="400" y="796" type="line" name="ah01"/>
      <point x="548" y="796" type="line" name="sh03"/>
      <point x="548" y="50" type="line" name="av01"/>
      <point x="400" y="50" type="line" name="sh04"/>
      <point x="400" y="382" type="line" name="dv01"/>
      <point x="216" y="382" type="line" name="sh05"/>
      <point x="216" y="50" type="line" name="av02"/>
      <point x="68" y="50" type="line"/>
    </contour>
  </outline>
</glyph>
<glyph name="xk" format="1">
  <advance width="1233"/>
  <outline>
    <contour>
      <point x="58" y="796" type="line" name="dh01"/>
      <point x="206" y="796" type="line" name="dh02"/>
      <point x="206" y="501" type="line" name="iv01"/>
      <point x="437" y="796" type="line" name="av01"/>
      <point x="604" y="796" type="line"/>
      <point x="368" y="502" type="line"/>
      <point x="612" y="50" type="line" name="av02"/>
      <point x="448" y="50" type="line"/>
      <point x="271" y="386" type="line" name="iv02"/>
      <point x="206" y="303" type="line" name="sh01"/>
      <point x="206" y="50" type="line" name="av03"/>
      <point x="58" y="50" type="line"/>
    </contour>
  </outline>
</glyph>
<glyph name="xn" format="1">
  <advance width="1233"/>
  <outline>
    <contour>
      <point x="59" y="796" type="line" name="sh01"/>
      <point x="218" y="796" type="line"/>
      <point x="426" y="254" type="line" name="ah01"/>
      <point x="426" y="796" type="line" name="av01"/>
      <point x="556" y="796" type="line"/>
      <point x="556" y="50" type="line" name="sh02"/>
      <point x="398" y="50" type="line"/>
      <point x="189" y="592" type="line" name="sh03"/>
      <point x="189" y="50" type="line" name="av02"/>
      <point x="59" y="50" type="line"/>
    </contour>
  </outline>
</glyph>
<glyph name="xo" format="1">
  <advance width="1233"/>
  <outline>
    <contour>
      <point x="308" y="677" type="qcurve" name="dv03"/>
      <point x="251" y="677"/>
      <point x="199" y="557"/>
      <point x="199" y="422" type="qcurve" name="sh02"/>
      <point x="199" y="288"/>
      <point x="251" y="168"/>
      <point x="308" y="168" type="qcurve" name="dv02"/>
      <point x="365" y="168"/>
      <point x="417" y="288"/>
      <point x="417" y="422" type="qcurve" name="ah01"/>
      <point x="417" y="557"/>
      <point x="365" y="677"/>
    </contour>
    <contour>
      <point x="46" y="422" type="qcurve" name="sh01"/>
      <point x="46" y="614"/>
      <point x="178" y="810"/>
      <point x="308" y="810" type="qcurve" name="dv04"/>
      <point x="438" y="810"/>
      <point x="570" y="614"/>
      <point x="570" y="422" type="qcurve" name="sh03"/>
      <point x="570" y="231"/>
      <point x="438" y="35"/>
      <point x="308" y="35" type="qcurve" name="dv01"/>
      <point x="178" y="35"/>
      <point x="46" y="231"/>
    </contour>
  </outline>
</glyph>
<glyph name="xp" format="1">
  <advance width="1233"/>
  <outline>
    <contour>
      <point x="228" y="672" type="line" name="sh02"/>
      <point x="228" y="453" type="line"/>
      <point x="289" y="453" type="line" name="dv04"/>
      <point x="361" y="453"/>
      <point x="420" y="502"/>
      <point x="420" y="563" type="qcurve" name="ah01"/>
      <point x="420" y="623"/>
      <point x="361" y="672"/>
      <point x="289" y="672" type="qcurve" name="dv01"/>
    </contour>
    <contour>
      <point x="81" y="796" type="line" name="sh01"/>
      <point x="283" y="796" type="line" name="dv02"/>
      <point x="438" y="796"/>
      <point x="573" y="686"/>
      <point x="573" y="563" type="qcurve" name="sh03"/>
      <point x="573" y="439"/>
      <point x="438" y="329"/>
      <point x="283" y="329" type="qcurve" name="dv03"/>
      <point x="228" y="329" type="line" name="sh04"/>
      <point x="228" y="50" type="line" name="av01"/>
      <point x="81" y="50" type="line"/>
    </contour>
  </outline>
</glyph>
<glyph name="xq" format="1">
  <advance width="1233"/>
  <outline>
    <contour>
      <point x="328" y="38" type="line" name="hr00"/>
      <point x="321" y="37"/>
      <point x="311" y="35"/>
      <point x="307" y="35" type="qcurve" name="dv01"/>
      <point x="178" y="35"/>
      <point x="46" y="231"/>
      <point x="46" y="422" type="qcurve" name="sh01"/>
      <point x="46" y="614"/>
      <point x="178" y="810"/>
      <point x="308" y="810" type="qcurve" name="dv04"/>
      <point x="438" y="810"/>
      <point x="570" y="614"/>
      <point x="570" y="422" type="qcurve" name="sh02"/>
      <point x="570" y="291"/>
      <point x="507" y="113"/>
      <point x="447" y="75" type="qcurve"/>
      <point x="540" y="-16" type="line"/>
      <point x="439" y="-91" type="line" name="av01"/>
    </contour>
    <contour>
      <point x="308" y="677" type="qcurve" name="dv03"/>
      <point x="251" y="677"/>
      <point x="199" y="557"/>
      <point x="199" y="422" type="qcurve" name="sh03"/>
      <point x="199" y="288"/>
      <point x="251" y="168"/>
      <point x="308" y="168" type="qcurve" name="dv02"/>
      <point x="365" y="168"/>
      <point x="417" y="288"/>
      <point x="417" y="422" type="qcurve" name="ah01"/>
      <point x="417" y="557"/>
      <point x="365" y="677"/>
    </contour>
  </outline>
</glyph>
<glyph name="xr" format="1">
  <advance width="1233"/>
  <outline>
    <contour>
      <point x="403" y="402" type="qcurve" name="sh01"/>
      <point x="425" y="398"/>
      <point x="458" y="365"/>
      <point x="481" y="318" type="qcurve"/>
      <point x="616" y="50" type="line" name="sv01"/>
      <point x="454" y="50" type="line"/>
      <point x="364" y="238" type="line"/>
      <point x="360" y="246"/>
      <point x="354" y="260" type="qcurve"/>
      <point x="314" y="345"/>
      <point x="261" y="345" type="qcurve"/>
      <point x="214" y="345" type="line"/>
      <point x="214" y="50" type="line" name="sh03"/>
      <point x="66" y="50" type="line" name="sh02"/>
      <point x="66" y="796" type="line"/>
      <point x="279" y="796" type="line" name="dv03"/>
      <point x="423" y="796"/>
      <point x="549" y="694"/>
      <point x="549" y="579" type="qcurve" name="sh04"/>
      <point x="549" y="502"/>
      <point x="474" y="411"/>
    </contour>
    <contour>
      <point x="214" y="672" type="line" name="sh05"/>
      <point x="214" y="469" type="line"/>
      <point x="283" y="469" type="line" name="dv01"/>
      <point x="344" y="469"/>
      <point x="396" y="516"/>
      <point x="396" y="571" type="qcurve" name="ah01"/>
      <point x="396" y="625"/>
      <point x="344" y="672"/>
      <point x="283" y="672" type="qcurve" name="dv02"/>
    </contour>
  </outline>
</glyph>
<glyph name="xs" format="1">
  <advance width="1233"/>
  <outline>
    <contour>
      <point x="255" y="377" type="line"/>
      <point x="143" y="420"/>
      <point x="64" y="513"/>
      <point x="64" y="592" type="qcurve" name="dh01"/>
      <point x="64" y="694"/>
      <point x="194" y="810"/>
      <point x="308" y="810" type="qcurve" name="dv04"/>
      <point x="359" y="810"/>
      <point x="462" y="786"/>
      <point x="513" y="763" type="qcurve"/>
      <point x="513" y="619" type="line" name="sh01"/>
      <point x="465" y="653"/>
      <point x="367" y="688"/>
      <point x="319" y="688" type="qcurve" name="dv03"/>
      <point x="266" y="688"/>
      <point x="209" y="645"/>
      <point x="209" y="605" type="qcurve" name="dh02"/>
      <point x="209" y="574"/>
      <point x="250" y="533"/>
      <point x="316" y="509" type="qcurve"/>
      <point x="380" y="485" type="line"/>
      <point x="470" y="452"/>
      <point x="555" y="343"/>
      <point x="555" y="260" type="qcurve" name="dh04"/>
      <point x="555" y="147"/>
      <point x="421" y="35"/>
      <point x="286" y="35" type="qcurve" name="dv01"/>
      <point x="231" y="35"/>
      <point x="119" y="62"/>
      <point x="67" y="88" type="qcurve" name="sh02"/>
      <point x="67" y="240" type="line" name="ih01"/>
      <point x="126" y="198"/>
      <point x="237" y="157"/>
      <point x="291" y="157" type="qcurve" name="dv02"/>
      <point x="345" y="157"/>
      <point x="405" y="207"/>
      <point x="405" y="251" type="qcurve" name="dh03"/>
      <point x="405" y="285"/>
      <point x="365" y="335"/>
      <point x="327" y="350" type="qcurve"/>
    </contour>
  </outline>
</glyph>
<glyph name="xt" format="1">
  <advance width="1233"/>
  <outline>
    <contour>
      <point x="382" y="50" type="line" name="dh02"/>
      <point x="234" y="50" type="line" name="dh01"/>
      <point x="234" y="667" type="line"/>
      <point x="45" y="667" type="line" name="dv01"/>
      <point x="45" y="796" type="line" name="dv02"/>
      <point x="571" y="796" type="line"/>
      <point x="571" y="667" type="line" name="sv01"/>
      <point x="382" y="667" type="line"/>
    </contour>
  </outline>
</glyph>
<glyph name="xu" format="1">
  <advance width="1233"/>
  <outline>
    <contour>
      <point x="53" y="325" type="qcurve" name="sh01"/>
      <point x="53" y="796" type="line" name="av01"/>
      <point x="200" y="796" type="line"/>
      <point x="200" y="288" type="line" name="sh02"/>
      <point x="200" y="232"/>
      <point x="257" y="169"/>
      <point x="308" y="169" type="qcurve" name="dv02"/>
      <point x="358" y="169"/>
      <point x="415" y="232"/>
      <point x="415" y="288" type="qcurve" name="ah01"/>
      <point x="415" y="796" type="line" name="av02"/>
      <point x="563" y="796" type="line"/>
      <point x="563" y="325" type="line" name="sh03"/>
      <point x="563" y="173"/>
      <point x="442" y="35"/>
      <point x="308" y="35" type="qcurve" name="dv01"/>
      <point x="174" y="35"/>
      <point x="53" y="173"/>
    </contour>
  </outline>
</glyph>
<glyph name="xw" format="1">
  <advance width="1233"/>
  <outline>
    <contour>
      <point x="0" y="796" type="line" name="av01"/>
      <point x="129" y="796" type="line"/>
      <point x="182" y="248" type="line" name="iv01"/>
      <point x="247" y="603" type="line"/>
      <point x="369" y="603" type="line"/>
      <point x="444" y="248" type="line" name="iv02"/>
      <point x="486" y="796" type="line" name="av02"/>
      <point x="616" y="796" type="line"/>
      <point x="530" y="50" type="line" name="av03"/>
      <point x="393" y="50" type="line"/>
      <point x="308" y="442" type="line" name="iv03"/>
      <point x="228" y="50" type="line" name="av04"/>
      <point x="92" y="50" type="line"/>
    </contour>
  </outline>
</glyph>
<glyph name="xz" format="1">
  <advance width="1233"/>
  <outline>
    <contour>
      <point x="68" y="796" type="line" name="hr00"/>
      <point x="573" y="796" type="line" name="sh01"/>
      <point x="573" y="674" type="line"/>
      <point x="227" y="180" type="line"/>
      <point x="580" y="180" type="line" name="dh02"/>
      <point x="580" y="50" type="line" name="dv01"/>
      <point x="57" y="50" type="line" name="sh02"/>
      <point x="57" y="172" type="line"/>
      <point x="393" y="666" type="line" name="dv02"/>
      <point x="68" y="666" type="line" name="dh01"/>
    </contour>
  </outline>
</glyph>
